<svg width="50" height="50" viewBox="0 0 50 50" fill="none" xmlns="http://www.w3.org/2000/svg">
<path d="M45.6055 5.95703H4.39453C1.97441 5.95703 0 7.9293 0 10.3516V39.6484C0 42.0625 1.96563 44.043 4.39453 44.043H45.6055C48.0195 44.043 50 42.0773 50 39.6484V10.3516C50 7.9375 48.0344 5.95703 45.6055 5.95703ZM44.9986 8.88672L25.0932 28.7923L5.01553 8.88672H44.9986ZM2.92969 39.0418V10.9442L17.039 24.9325L2.92969 39.0418ZM5.00127 41.1133L19.1194 26.9951L24.0664 31.8996C24.6391 32.4674 25.5632 32.4655 26.1335 31.8951L30.957 27.0716L44.9987 41.1133H5.00127ZM47.0703 39.0417L33.0286 25L47.0703 10.9582V39.0417Z" fill="#DEDBDB"/>
</svg>
