<svg width="50" height="50" viewBox="0 0 50 50" fill="none" xmlns="http://www.w3.org/2000/svg">
<g clip-path="url(#clip0)">
<path d="M49.1602 22.352L44.9363 18.5032V5.74122C44.9363 4.92921 44.278 4.27081 43.4659 4.27081H33.2984C32.4864 4.27081 31.828 4.92911 31.828 5.74122V6.559L26.7268 1.91085C25.7422 1.01349 24.2573 1.01359 23.273 1.91075L0.839634 22.3521C0.0509617 23.0708 -0.209683 24.1782 0.175669 25.1733C0.561118 26.1683 1.49959 26.8111 2.56668 26.8111H6.14959V47.2917C6.14959 48.1037 6.80789 48.7621 7.62 48.7621H19.9162C20.7282 48.7621 21.3866 48.1038 21.3866 47.2917V34.8566H28.6133V47.2918C28.6133 48.1038 29.2716 48.7622 30.0837 48.7622H42.3794C43.1914 48.7622 43.8498 48.1039 43.8497 47.2918V26.8112H47.4334C48.5004 26.8112 49.4389 26.1683 49.8244 25.1734C50.2096 24.1782 49.9491 23.0708 49.1602 22.352ZM42.3794 23.8704C41.5674 23.8704 40.909 24.5287 40.909 25.3408V45.8214H31.5542V33.3861C31.5542 32.5741 30.8958 31.9157 30.0838 31.9157H19.9162C19.1042 31.9157 18.4458 32.574 18.4458 33.3861V45.8214H9.09032V25.3408C9.09032 24.5288 8.43202 23.8704 7.61991 23.8704H3.53954L25.0001 4.31574L32.3083 10.975C32.7388 11.3672 33.3601 11.4683 33.8927 11.2332C34.4253 10.9979 34.7689 10.4703 34.7689 9.8881V7.21163H41.9957V19.1526C41.9957 19.5664 42.1699 19.9609 42.4758 20.2396L46.4604 23.8704H42.3794Z" fill="#DEDBDB"/>
</g>
<defs>
<clipPath id="clip0">
<rect width="50" height="50" fill="white"/>
</clipPath>
</defs>
</svg>
