<svg width="50" height="49" viewBox="0 0 50 49" fill="none" xmlns="http://www.w3.org/2000/svg">
<path d="M24.5029 14.2915C18.8723 14.2915 14.2918 18.8719 14.2918 24.5025C14.2918 30.1331 18.8723 34.7136 24.5029 34.7136C30.1334 34.7136 34.7089 30.1331 34.7089 24.5025C34.7139 18.8719 30.1334 14.2915 24.5029 14.2915ZM24.5029 32.6684C19.9974 32.6684 16.332 29.003 16.332 24.5025C16.332 19.9971 19.9974 16.3367 24.5029 16.3367C29.0083 16.3367 32.6687 20.0021 32.6687 24.5025C32.6687 29.003 29.0083 32.6684 24.5029 32.6684Z" fill="#DEDBDB"/>
<path d="M46.5498 19.322L41.8743 18.3719C41.6393 17.6868 41.3642 17.0217 41.0592 16.3767L43.7045 12.3513C44.5096 11.1261 44.3495 9.49097 43.3194 8.45086L40.3841 5.47556C39.7941 4.8755 39.014 4.57047 38.2239 4.57047C37.6389 4.57047 37.0488 4.74048 36.5337 5.09052L32.5633 7.77579C31.9283 7.46576 31.2732 7.18573 30.5931 6.94571L29.658 2.49025C29.378 1.04011 28.1229 0 26.6677 0H22.5173C21.0622 0 19.812 1.04011 19.527 2.48525L18.5919 6.94071C17.9168 7.18073 17.2618 7.46076 16.6267 7.77079L12.6513 5.09052C12.1362 4.74048 11.5462 4.57047 10.9611 4.57047C10.171 4.57047 9.39096 4.8805 8.8009 5.47556L5.8656 8.45086C4.83549 9.49097 4.67548 11.1261 5.48556 12.3513L8.13083 16.3767C7.8208 17.0217 7.54577 17.6868 7.31575 18.3719L2.45025 19.322C1.0251 19.607 0 20.8771 0 22.3523V26.5577C0 28.0329 1.0251 29.303 2.45525 29.588L7.32075 30.5381C7.55577 31.2232 7.8308 31.8883 8.13583 32.5333L5.49056 36.5587C4.68548 37.7839 4.8455 39.419 5.8706 40.4591L8.8059 43.4344C9.39596 44.0345 10.176 44.3395 10.9661 44.3395C11.5512 44.3395 12.1412 44.1695 12.6563 43.8195L16.6267 41.1342C17.2618 41.4442 17.9168 41.7243 18.5969 41.9643L19.532 46.5147C19.817 47.9599 21.0672 49 22.5223 49H26.6727C28.1279 49 29.378 47.9599 29.668 46.5147L30.6031 41.9643C31.2782 41.7243 31.9333 41.4442 32.5683 41.1342L36.5387 43.8195C37.0538 44.1695 37.6439 44.3395 38.2289 44.3395C39.019 44.3395 39.7991 44.0345 40.3891 43.4344L43.3244 40.4591C44.3545 39.419 44.5146 37.7839 43.7095 36.5587L41.0642 32.5333C41.3742 31.8883 41.6493 31.2232 41.8793 30.5381L46.5548 29.588C47.9799 29.298 49.005 28.0279 49.005 26.5577V22.3523C49.005 20.8771 47.9799 19.607 46.5498 19.322ZM46.9648 26.5577C46.9648 27.0578 46.6198 27.4928 46.1497 27.5878L41.4742 28.5379L40.3291 28.7729L39.9491 29.878C39.7441 30.4731 39.499 31.0682 39.224 31.6532L38.724 32.6933L39.354 33.6534L41.9993 37.6788C42.2793 38.0989 42.2243 38.6639 41.8693 39.024L38.939 41.9993C38.749 42.1943 38.4989 42.2993 38.2289 42.2993C38.0939 42.2993 37.8889 42.2693 37.6789 42.1293L33.7084 39.444L32.7283 38.784L31.6682 39.304C31.0882 39.589 30.4981 39.8391 29.9231 40.0441L28.8329 40.4291L28.5979 41.5592L27.6578 46.1297C27.5628 46.6148 27.1478 46.9698 26.6677 46.9698H22.5173C22.0423 46.9698 21.6272 46.6148 21.5272 46.1147L20.5921 41.5642L20.3571 40.4341L19.267 40.0491C18.6819 39.8441 18.0969 39.594 17.5218 39.314L16.4617 38.794L15.4816 39.459L11.5062 42.1443C11.3012 42.2843 11.0961 42.3093 10.9611 42.3093C10.6961 42.3093 10.4461 42.2043 10.256 42.0093L7.32075 39.034C6.96571 38.6739 6.91571 38.1139 7.19074 37.6888L9.83601 33.6634L10.4661 32.7033L9.97102 31.6632C9.68599 31.0632 9.44097 30.4631 9.24095 29.888L8.86091 28.7729L7.70079 28.5479L2.85529 27.6028C2.38024 27.5078 2.04021 27.0728 2.04021 26.5727V22.3523C2.04021 21.8522 2.38524 21.4172 2.84029 21.3222L7.70579 20.3721L8.86591 20.1471L9.24595 19.0319C9.45097 18.4369 9.69099 17.8418 9.97102 17.2568L10.4661 16.2167L9.83101 15.2516L7.18573 11.2261C6.90571 10.8061 6.96071 10.241 7.31575 9.88101L10.251 6.9057C10.4411 6.71569 10.6911 6.60567 10.9561 6.60567C11.1511 6.60567 11.3412 6.66568 11.5062 6.77569L15.4766 9.46096L16.4567 10.121L17.5168 9.60098C18.1019 9.31595 18.6919 9.06592 19.267 8.8659L20.3521 8.48587L20.5871 7.36075L21.5272 2.88029C21.6222 2.39524 22.0373 2.04021 22.5123 2.04021H26.6627C27.1428 2.04021 27.5578 2.39524 27.6578 2.9053L28.5929 7.36075L28.8279 8.48587L29.9131 8.8659C30.4981 9.07093 31.0832 9.32095 31.6582 9.60098L32.7183 10.121L33.6984 9.45596L37.6739 6.77069C37.8789 6.63068 38.0839 6.60067 38.2189 6.60067C38.4839 6.60067 38.734 6.70568 38.924 6.9007L41.8593 9.87601C42.2143 10.236 42.2643 10.7961 41.9893 11.2211L39.349 15.2516L38.719 16.2117L39.214 17.2518C39.499 17.8518 39.7441 18.4469 39.9441 19.0269L40.3241 20.1321L41.4692 20.3671L46.1497 21.3172C46.6248 21.4122 46.9648 21.8472 46.9648 22.3473V26.5577Z" fill="#DEDBDB"/>
</svg>
