<svg width="50" height="50" viewBox="0 0 50 50" fill="none" xmlns="http://www.w3.org/2000/svg">
<path d="M37.5704 0L5.96631 31.6042L0 50L18.3959 44.0338L50 12.4296L37.5704 0ZM45.8568 12.4296L41.7136 16.5729L33.4272 8.28643L37.5703 4.14316L45.8568 12.4296ZM7.90654 35.1182L14.8818 42.0936L11.7533 43.1082L6.8918 38.2467L7.90654 35.1182ZM9.32266 32.3911L31.3556 10.3581L34.463 13.4655L12.43 35.4984L9.32266 32.3911ZM14.5016 37.57L36.5346 15.5369L39.642 18.6443L17.609 40.6774L14.5016 37.57ZM5.87725 41.3752L8.6249 44.1229L4.5583 45.4417L5.87725 41.3752Z" fill="#DEDBDB"/>
</svg>
